<svg xmlns="http://www.w3.org/2000/svg" width="19" height="19" viewBox="0 0 19 19" fill="none">
  <path fill-rule="evenodd" clip-rule="evenodd" d="M4.7645 2.25268C4.89641 2.07824 5.10344 1.97559 5.3233 1.97559H13.7053C13.9252 1.97559 14.1322 2.07824 14.2641 2.25268L16.3596 5.02359C16.4503 5.14349 16.4993 5.28934 16.4993 5.43922V15.1374C16.4993 15.6886 16.2785 16.2172 15.8855 16.6069C15.4926 16.9966 14.9596 17.2156 14.4038 17.2156H4.6248C4.06904 17.2156 3.53604 16.9966 3.14305 16.6069C2.75007 16.2172 2.5293 15.6886 2.5293 15.1374V5.43922C2.5293 5.28934 2.57832 5.14349 2.669 5.02359L4.7645 2.25268ZM5.67255 3.36104L3.9263 5.67013V15.1374C3.9263 15.3211 3.99989 15.4973 4.13088 15.6272C4.26188 15.7571 4.43954 15.8301 4.6248 15.8301H14.4038C14.5891 15.8301 14.7667 15.7571 14.8977 15.6272C15.0287 15.4973 15.1023 15.3211 15.1023 15.1374V5.67013L13.356 3.36104H5.67255Z" fill="white"/>
  <path fill-rule="evenodd" clip-rule="evenodd" d="M2.5293 5.15014C2.5293 4.79944 2.84203 4.51514 3.2278 4.51514H15.8008C16.1866 4.51514 16.4993 4.79944 16.4993 5.15014C16.4993 5.50084 16.1866 5.78514 15.8008 5.78514H3.2278C2.84203 5.78514 2.5293 5.50084 2.5293 5.15014Z" fill="white"/>
  <path fill-rule="evenodd" clip-rule="evenodd" d="M6.97387 7.05518C7.32457 7.05518 7.60887 7.43424 7.60887 7.90184C7.60887 8.57549 7.80957 9.22155 8.16683 9.69789C8.52409 10.1742 9.00863 10.4418 9.51387 10.4418C10.0191 10.4418 10.5036 10.1742 10.8609 9.69789C11.2182 9.22155 11.4189 8.57549 11.4189 7.90184C11.4189 7.43424 11.7032 7.05518 12.0539 7.05518C12.4046 7.05518 12.6889 7.43424 12.6889 7.90184C12.6889 9.02459 12.3544 10.1014 11.7589 10.8953C11.1635 11.6892 10.3559 12.1352 9.51387 12.1352C8.6718 12.1352 7.86423 11.6892 7.2688 10.8953C6.67337 10.1014 6.33887 9.02459 6.33887 7.90184C6.33887 7.43424 6.62317 7.05518 6.97387 7.05518Z" fill="white"/>
</svg>