<svg xmlns="http://www.w3.org/2000/svg" width="22" height="22" viewBox="0 0 22 22" fill="none">
  <path d="M10.8598 1.21973C5.78699 1.21973 1.63123 5.15456 1.23633 10.1551L6.4122 12.3079C6.85077 12.0062 7.38058 11.8294 7.95056 11.8294C8.00164 11.8294 8.0525 11.8311 8.10293 11.834L10.4047 8.4778C10.4047 8.46177 10.4045 8.44618 10.4045 8.43037C10.4045 6.41025 12.038 4.76674 14.0463 4.76674C16.0545 4.76674 17.688 6.41025 17.688 8.43037C17.688 10.4505 16.0545 12.0942 14.0463 12.0942C14.0186 12.0942 13.9911 12.0936 13.9636 12.0929L10.6808 14.4492C10.6826 14.4921 10.6841 14.5358 10.6841 14.5792C10.6841 16.0958 9.45791 17.3291 7.95056 17.3291C6.62745 17.3291 5.52111 16.3791 5.2705 15.121L1.56902 13.5816C2.71509 17.6592 6.43905 20.6486 10.8598 20.6486C16.1933 20.6486 20.5167 16.2992 20.5167 10.9345C20.5167 5.56895 16.1931 1.21973 10.8598 1.21973Z" fill="white"/>
  <path d="M7.28758 15.9599L6.10134 15.4669C6.31157 15.9072 6.67525 16.2759 7.15813 16.4784C8.20204 16.9158 9.40552 16.4176 9.84059 15.3666C10.0513 14.8584 10.0526 14.2973 9.84365 13.7878C9.63517 13.2781 9.2418 12.8807 8.736 12.6685C8.23413 12.4584 7.69646 12.466 7.22406 12.6455L8.44937 13.1552C9.21931 13.478 9.58344 14.3674 9.26254 15.1419C8.94229 15.9167 8.05752 16.283 7.28758 15.9599Z" fill="white"/>
  <path d="M16.4726 8.43036C16.4726 7.08441 15.3842 5.98926 14.046 5.98926C12.7081 5.98926 11.6194 7.08441 11.6194 8.43036C11.6194 9.77652 12.7081 10.8712 14.046 10.8712C15.3842 10.871 16.4726 9.7763 16.4726 8.43036ZM12.2272 8.42618C12.2272 7.41338 13.0434 6.5925 14.0502 6.5925C15.057 6.5925 15.8732 7.41338 15.8732 8.42618C15.8732 9.43899 15.057 10.2599 14.0502 10.2599C13.0434 10.2599 12.2272 9.43877 12.2272 8.42618Z" fill="white"/>
</svg>