<svg width="19" height="19" viewBox="0 0 19 19" fill="none" xmlns="http://www.w3.org/2000/svg">
<g clip-path="url(#clip0_310_1190)">
<circle cx="9.03332" cy="9.91564" r="7.4295" stroke="white" stroke-width="1.651"/>
<path d="M9.43724 11.1057H8.34824C8.3515 10.8029 8.37754 10.549 8.42637 10.3439C8.47521 10.1355 8.5566 9.9467 8.67055 9.7774C8.78775 9.60811 8.94239 9.42905 9.13447 9.24023C9.28423 9.09698 9.41934 8.96187 9.53979 8.8349C9.66025 8.70468 9.75629 8.56794 9.82792 8.4247C9.89954 8.27819 9.93535 8.11053 9.93535 7.9217C9.93535 7.7166 9.90117 7.54242 9.8328 7.39918C9.76443 7.25593 9.66351 7.14687 9.53003 7.07199C9.3998 6.99711 9.23702 6.95967 9.04169 6.95967C8.87891 6.95967 8.72589 6.99223 8.58264 7.05734C8.4394 7.11919 8.32382 7.21686 8.23592 7.35034C8.14802 7.48057 8.10081 7.65312 8.0943 7.86799H6.9174C6.92391 7.45778 7.02158 7.11268 7.2104 6.8327C7.39923 6.55272 7.65317 6.34273 7.97222 6.20274C8.29127 6.06275 8.64776 5.99275 9.04169 5.99275C9.47794 5.99275 9.85071 6.06763 10.16 6.21739C10.4693 6.36389 10.7053 6.57876 10.8681 6.862C11.0341 7.14198 11.1171 7.48057 11.1171 7.87775C11.1171 8.16425 11.0602 8.4247 10.9462 8.6591C10.8323 8.89025 10.6841 9.10675 10.5018 9.3086C10.3195 9.50719 10.1226 9.70578 9.91094 9.90437C9.72862 10.0704 9.60491 10.2511 9.53979 10.4464C9.47468 10.6385 9.4405 10.8583 9.43724 11.1057ZM8.25057 12.6293C8.25057 12.4535 8.3108 12.3054 8.43126 12.1849C8.55172 12.0612 8.71612 11.9994 8.92448 11.9994C9.13284 11.9994 9.29725 12.0612 9.41771 12.1849C9.53817 12.3054 9.5984 12.4535 9.5984 12.6293C9.5984 12.8051 9.53817 12.9549 9.41771 13.0786C9.29725 13.1991 9.13284 13.2593 8.92448 13.2593C8.71612 13.2593 8.55172 13.1991 8.43126 13.0786C8.3108 12.9549 8.25057 12.8051 8.25057 12.6293Z" fill="white"/>
</g>
<defs>
<clipPath id="clip0_310_1190">
<rect width="18.0023" height="18.0023" fill="white" transform="translate(0.0175781 0.911621)"/>
</clipPath>
</defs>
</svg>
