<svg xmlns="http://www.w3.org/2000/svg" width="22" height="22" viewBox="0 0 22 22" fill="none">
  <path d="M2.93612 1.55651C3.03293 1.50113 3.1426 1.47222 3.25413 1.47266C3.36565 1.47311 3.47509 1.5029 3.57145 1.55905L13.5372 7.37231L10.4533 10.1474L2.61719 3.09527V2.10797C2.6171 1.99611 2.64654 1.88621 2.70254 1.78938C2.75854 1.69255 2.83912 1.61222 2.93612 1.55651ZM2.61719 4.80558V17.1996L9.50415 11.0026L2.61719 4.80558ZM2.61719 18.9099V19.8972C2.61715 20.009 2.64662 20.1188 2.7026 20.2155C2.75859 20.3123 2.83911 20.3926 2.93604 20.4483C3.03298 20.5039 3.14289 20.5331 3.25467 20.5327C3.36646 20.5323 3.47617 20.5024 3.57272 20.4461L13.5372 14.6328L10.4533 11.8577L2.61719 18.9099ZM14.6897 13.9607L18.8193 11.5515C18.9153 11.4956 18.995 11.4154 19.0503 11.3191C19.1057 11.2228 19.1348 11.1137 19.1348 11.0026C19.1348 10.8915 19.1057 10.7823 19.0503 10.686C18.995 10.5897 18.9153 10.5096 18.8193 10.4536L14.6897 8.04448L11.4025 11.0026L14.6897 13.9607Z" fill="white"/>
</svg>