<svg xmlns="http://www.w3.org/2000/svg" width="14" height="21" viewBox="0 0 14 21" fill="none">
  <g clip-path="url(#clip0_409_17377)">
    <path d="M8.84695 6.55219C8.84695 3.63652 7.4466 1.12455 6.37399 0.302184C6.37399 0.302184 6.2995 0.257328 6.2995 0.376945C6.21012 6.01391 3.36472 7.55399 1.7856 9.60244C-1.83446 14.3572 1.53235 19.5606 4.95874 20.5175C6.8805 21.0558 4.51182 19.5606 4.21387 16.4206C3.85634 12.6078 8.84695 9.7071 8.84695 6.55219Z" fill="white"/>
    <path d="M10.7239 8.48045C10.709 8.4655 10.6792 8.4655 10.6495 8.48045C10.6495 8.48045 10.6495 8.48045 10.6346 8.4954C10.575 9.19816 9.8003 10.7233 8.83197 12.1138C5.53966 16.8387 7.41672 19.1114 8.47444 20.3375C9.08523 21.0552 8.47444 20.3375 10.0089 19.6049C10.128 19.5451 12.9883 18.0199 13.3012 14.566C13.614 11.2017 11.4837 9.09349 10.7239 8.48045Z" fill="#D7D7D7"/>
  </g>
  <defs>
    <clipPath id="clip0_409_17377">
      <rect width="13.1097" height="20.32" fill="white" transform="translate(0.236328 0.302246)"/>
    </clipPath>
  </defs>
</svg>