<svg xmlns="http://www.w3.org/2000/svg" width="20" height="19" viewBox="0 0 20 19" fill="none">
  <g clip-path="url(#clip0_409_17301)">
    <path d="M17.4526 9.18506C16.7718 9.76661 15.9057 10.0862 15.0103 10.0863C14.9444 10.0863 14.8833 10.0863 14.8223 10.0863C15.342 10.855 15.6193 11.7619 15.6185 12.6898V15.4789H19.5506V12.6898C19.5506 11.9705 19.3555 11.2646 18.9861 10.6474C18.6166 10.0302 18.0866 9.52483 17.4526 9.18506Z" fill="white"/>
    <path d="M13.3223 8.6795C13.2832 8.72835 13.2466 8.77231 13.2051 8.81627C13.7279 9.19491 14.3571 9.39838 15.0026 9.39754C15.4152 9.40915 15.8258 9.33792 16.2104 9.18806C16.5949 9.0382 16.9455 8.81276 17.2414 8.52506C17.5373 8.23737 17.7725 7.89326 17.9331 7.51309C18.0938 7.13291 18.1765 6.72439 18.1765 6.31169C18.1765 5.89898 18.0938 5.49046 17.9331 5.11029C17.7725 4.73011 17.5373 4.38601 17.2414 4.09831C16.9455 3.81061 16.5949 3.58517 16.2104 3.43531C15.8258 3.28545 15.4152 3.21422 15.0026 3.22583C14.3572 3.22533 13.728 3.42877 13.2051 3.8071C13.8026 4.4742 14.1426 5.3325 14.1641 6.2278C14.1856 7.1231 13.8871 7.99672 13.3223 8.69172V8.6795Z" fill="white"/>
    <path d="M5.77365 10.0838C4.87823 10.0837 4.01221 9.76417 3.33134 9.18262C2.69697 9.52259 2.16677 10.0284 1.79729 10.646C1.42782 11.2637 1.23293 11.97 1.2334 12.6898V15.4789H5.16551V12.6898C5.16415 11.761 5.44151 10.8532 5.96171 10.0838C5.90065 10.0838 5.83959 10.0838 5.77365 10.0838Z" fill="white"/>
    <path d="M5.7736 9.39761C6.41911 9.39845 7.04833 9.19498 7.57114 8.81635C7.52962 8.77238 7.49299 8.72842 7.45391 8.67958C6.89236 7.98549 6.59584 7.11438 6.61731 6.22184C6.63879 5.32929 6.97686 4.47345 7.57114 3.80717C7.11039 3.4761 6.56726 3.27851 6.00148 3.23615C5.4357 3.19379 4.8692 3.30829 4.36428 3.56706C3.85937 3.82582 3.43561 4.21884 3.1396 4.70286C2.8436 5.18689 2.68682 5.74318 2.68652 6.31054C2.68782 7.12888 3.01347 7.91334 3.59213 8.492C4.17079 9.07066 4.95525 9.39632 5.7736 9.39761Z" fill="white"/>
    <path d="M12.8341 9.18262C12.1532 9.76403 11.2872 10.0835 10.3918 10.0835C9.49644 10.0835 8.63043 9.76403 7.9495 9.18262C7.31619 9.52322 6.78681 10.0288 6.41747 10.6458C6.04813 11.2628 5.85259 11.9682 5.85156 12.6873V15.4764H14.9321V12.6873C14.931 11.9682 14.7355 11.2628 14.3662 10.6458C13.9968 10.0288 13.4674 9.52322 12.8341 9.18262Z" fill="white"/>
    <path d="M10.3923 9.3973C11.0026 9.39682 11.5991 9.21541 12.1064 8.87602C12.6137 8.53662 13.009 8.05446 13.2424 7.49047C13.4757 6.92648 13.5366 6.30597 13.4175 5.70737C13.2983 5.10876 13.0043 4.55892 12.5727 4.12733C12.1411 3.69574 11.5913 3.40178 10.9927 3.28258C10.3941 3.16339 9.77356 3.22432 9.20957 3.45767C8.64558 3.69102 8.16342 4.08632 7.82402 4.59361C7.48462 5.1009 7.30322 5.69742 7.30273 6.30778C7.30403 7.12677 7.62994 7.91185 8.20906 8.49097C8.78818 9.07009 9.57326 9.39601 10.3923 9.3973Z" fill="white"/>
  </g>
  <defs>
    <clipPath id="clip0_409_17301">
      <rect width="19.05" height="19.05" fill="white" transform="translate(0.867188 -0.173828)"/>
    </clipPath>
  </defs>
</svg>