<svg xmlns="http://www.w3.org/2000/svg" width="22" height="22" viewBox="0 0 22 22" fill="none">
  <path d="M15.0427 8.80713C14.1237 8.80713 13.376 9.55484 13.376 10.4739C13.376 11.6937 14.6486 12.4981 15.7468 11.9841L15.4539 11.6913C15.2214 11.4589 15.2214 11.0819 15.4539 10.8494C15.6864 10.617 16.0633 10.617 16.2958 10.8494L16.5752 11.1288C17.0452 10.0335 16.2366 8.80713 15.0427 8.80713Z" fill="white"/>
  <path d="M19.1307 3.90576H2.38262C1.39785 3.90576 0.59668 4.70693 0.59668 5.6917V15.2566C0.59668 16.2415 1.39785 17.0426 2.38262 17.0426H9.26842L10.2804 18.3919C10.5187 18.7095 10.9953 18.7089 11.233 18.3919L12.245 17.0426H19.1307C20.1155 17.0426 20.9167 16.2415 20.9167 15.2566V5.6917C20.9167 4.70693 20.1155 3.90576 19.1307 3.90576ZM5.86667 9.85287C6.19545 9.85287 6.46199 10.1194 6.46199 10.4482C6.46199 10.777 6.19545 11.0435 5.86667 11.0435H4.78634V12.7362C4.78634 13.0649 4.51976 13.3315 4.19103 13.3315C3.86225 13.3315 3.59571 13.0649 3.59571 12.7362V8.2452C3.59571 7.91643 3.86225 7.64989 4.19103 7.64989H6.01122C6.33999 7.64989 6.60653 7.91643 6.60653 8.2452C6.60653 8.57397 6.33999 8.84052 6.01122 8.84052H4.78634V9.85287H5.86667ZM11.225 13.2931C10.9173 13.4093 10.5739 13.2539 10.4578 12.9464L10.1839 12.2206H8.27635L7.99925 12.9481C7.88201 13.2558 7.53764 13.4094 7.23105 13.2925C6.92383 13.1755 6.76961 12.8316 6.8866 12.5243L8.58539 8.06387C8.68243 7.80562 8.93607 7.61703 9.23599 7.61671C9.51932 7.61643 9.77352 7.78518 9.88202 8.04911C9.88778 8.06312 9.81233 7.86365 11.5718 12.526C11.6878 12.8336 11.5326 13.1771 11.225 13.2931ZM17.7435 13.1389C17.511 13.3714 17.1341 13.3714 16.9016 13.1389L16.6188 12.8561C16.1668 13.1561 15.6251 13.3315 15.043 13.3315C13.4674 13.3315 12.1857 12.0497 12.1857 10.4741C12.1857 8.89858 13.4674 7.61675 15.043 7.61675C16.6185 7.61675 17.9004 8.89858 17.9004 10.4741C17.9004 11.0377 17.7357 11.5632 17.4529 12.0064L17.7435 12.2969C17.976 12.5294 17.976 12.9064 17.7435 13.1389Z" fill="white"/>
  <path d="M8.73047 11.0298H9.73528L9.23518 9.70459L8.73047 11.0298Z" fill="white"/>
</svg>