<svg xmlns="http://www.w3.org/2000/svg" width="19" height="19" viewBox="0 0 19 19" fill="none">
  <path d="M6.96987 7.46973C5.84419 7.46973 4.74379 7.80353 3.80782 8.42893C2.87185 9.05432 2.14235 9.94322 1.71157 10.9832C1.28079 12.0232 1.16807 13.1676 1.38768 14.2716C1.60729 15.3757 2.14936 16.3898 2.94534 17.1858C3.74132 17.9818 4.75545 18.5239 5.8595 18.7435C6.96356 18.9631 8.10794 18.8504 9.14793 18.4196C10.1879 17.9888 11.0768 17.2593 11.7022 16.3233C12.3276 15.3874 12.6614 14.287 12.6614 13.1613C12.6614 11.6518 12.0618 10.2041 10.9944 9.13674C9.92703 8.06937 8.47936 7.46973 6.96987 7.46973ZM6.96987 18.1832C5.97662 18.1832 5.00568 17.8887 4.17982 17.3369C3.35397 16.7851 2.71029 16.0007 2.33019 15.0831C1.95009 14.1654 1.85064 13.1557 2.04441 12.1815C2.23819 11.2074 2.71648 10.3125 3.41881 9.61022C4.12115 8.90788 5.01597 8.42959 5.99014 8.23582C6.9643 8.04204 7.97405 8.14149 8.89169 8.52159C9.80933 8.90169 10.5937 9.54537 11.1455 10.3712C11.6973 11.1971 11.9918 12.168 11.9918 13.1613C11.9918 14.4932 11.4627 15.7705 10.5209 16.7123C9.57913 17.6541 8.30177 18.1832 6.96987 18.1832Z" fill="white" stroke="white" stroke-width="0.254"/>
  <path d="M9.81509 11.3194L7.13672 9.77435C7.08582 9.74496 7.02809 9.72949 6.96932 9.72949C6.91055 9.72949 6.85282 9.74496 6.80192 9.77435L4.12355 11.3194C4.0727 11.3488 4.03047 11.391 4.00109 11.4418C3.97171 11.4927 3.95621 11.5503 3.95615 11.609V14.7042C3.95472 14.7644 3.96951 14.8238 3.99896 14.8762C4.02842 14.9286 4.07146 14.9721 4.12355 15.0022L6.80192 16.549C6.85282 16.5783 6.91055 16.5938 6.96932 16.5938C7.02809 16.5938 7.08582 16.5783 7.13672 16.549L9.81509 15.0022C9.86594 14.9728 9.90817 14.9306 9.93755 14.8798C9.96693 14.829 9.98243 14.7713 9.98249 14.7126V11.6107C9.98273 11.5517 9.96737 11.4937 9.93797 11.4426C9.90858 11.3914 9.86619 11.3489 9.81509 11.3194ZM6.96932 10.449L9.03 11.6392L6.96932 12.826L4.90865 11.6408L6.96932 10.449ZM4.62574 12.2518L6.63452 13.4119V15.6718L4.62574 14.51V12.2518ZM7.30412 15.6718V13.4119L9.3129 12.2518V14.51L7.30412 15.6718Z" fill="white" stroke="white" stroke-width="0.254"/>
  <path d="M12.3263 2.11279C9.13402 2.11279 6.63477 3.28458 6.63477 4.79117V6.46515C6.63477 6.55395 6.67004 6.6391 6.73283 6.70189C6.79561 6.76468 6.88077 6.79995 6.96956 6.79995C7.05836 6.79995 7.14351 6.76468 7.2063 6.70189C7.26909 6.6391 7.30436 6.55395 7.30436 6.46515V6.07009C8.25518 6.90708 10.1267 7.46954 12.3263 7.46954C14.5259 7.46954 16.3974 6.91043 17.3483 6.07009V9.18036C17.3483 9.90352 16.0091 10.8142 13.4546 11.1557C13.371 11.1675 13.295 11.2105 13.2418 11.276C13.1886 11.3415 13.1621 11.4247 13.1676 11.5089C13.1731 11.5932 13.2102 11.6722 13.2715 11.7302C13.3328 11.7883 13.4137 11.821 13.4981 11.8219H13.5416C15.2826 11.5909 16.6067 11.1021 17.3483 10.4576V13.5143C17.3483 14.3061 15.8316 15.2569 13.2956 15.4745C13.2068 15.4783 13.1231 15.5172 13.063 15.5827C13.0029 15.6481 12.9712 15.7348 12.975 15.8236C12.9788 15.9124 13.0176 15.996 13.0831 16.0561C13.1486 16.1163 13.2352 16.1479 13.324 16.1441H13.3525C16.0995 15.9048 18.0179 14.825 18.0179 13.5143V4.79117C18.0179 3.28458 15.5186 2.11279 12.3263 2.11279ZM12.3263 6.79995C9.36671 6.79995 7.30436 5.74199 7.30436 4.79117C7.30436 3.84035 9.36671 2.78239 12.3263 2.78239C15.2859 2.78239 17.3483 3.84035 17.3483 4.79117C17.3483 5.74199 15.2859 6.79995 12.3263 6.79995Z" fill="white" stroke="white" stroke-width="0.254"/>
</svg>