<svg xmlns="http://www.w3.org/2000/svg" width="22" height="22" viewBox="0 0 22 22" fill="none">
  <path d="M18.0276 12.9307L10.6428 7.39441L3.25787 12.9307C3.17658 12.9914 3.0837 13.0466 2.99079 13.0908V19.7972C2.99079 20.3547 3.46105 20.8073 4.04743 20.8073H7.8676V15.5691C7.8676 15.0282 8.33205 14.5921 8.89523 14.5921H12.3845C12.9534 14.5921 13.4121 15.0282 13.4121 15.5691V20.8073H17.238C17.8186 20.8073 18.2947 20.3547 18.2947 19.7972V13.0908C18.2018 13.0466 18.1089 12.9914 18.0276 12.9307ZM20.4476 8.86451L11.2163 1.94683C10.8791 1.69416 10.4037 1.69416 10.0665 1.94683L0.835282 8.8645C0.432472 9.16636 0.363311 9.72152 0.680808 10.1045L1.59236 11.204C1.90985 11.587 2.49377 11.6527 2.89658 11.3509L10.6415 5.54707L18.3863 11.3509C18.7891 11.6527 19.373 11.587 19.6905 11.204L20.6021 10.1045C20.9196 9.72152 20.8504 9.16636 20.4476 8.86451Z" fill="white"/>
</svg>