<svg xmlns="http://www.w3.org/2000/svg" width="19" height="19" viewBox="0 0 19 19" fill="none">
  <g clip-path="url(#clip0_409_17374)">
    <path d="M3.44648 8.95352C3.86673 8.95352 4.24709 8.7849 4.52816 8.51414L6.0701 9.28505C6.06237 9.34785 6.05098 9.40957 6.05098 9.47441C6.05098 10.3361 6.75202 11.0371 7.61367 11.0371C8.47533 11.0371 9.17637 10.3361 9.17637 9.47441C9.17637 9.2339 9.11722 9.00873 9.01969 8.80498L11.1114 6.71324C11.3152 6.81078 11.5404 6.86992 11.7809 6.86992C12.6425 6.86992 13.3436 6.16888 13.3436 5.30723C13.3436 5.14499 13.3117 4.99157 13.2656 4.84439L15.083 3.48164C15.331 3.64727 15.6282 3.74453 15.948 3.74453C16.8097 3.74453 17.5107 3.04349 17.5107 2.18184C17.5107 1.32018 16.8097 0.619141 15.948 0.619141C15.0864 0.619141 14.3854 1.32018 14.3854 2.18184C14.3854 2.34407 14.4172 2.49749 14.4634 2.64468L12.6459 4.00742C12.3979 3.84179 12.1007 3.74453 11.7809 3.74453C10.9192 3.74453 10.2182 4.44557 10.2182 5.30723C10.2182 5.54773 10.2773 5.77291 10.3748 5.97666L8.28311 8.06839C8.07936 7.97086 7.85418 7.91172 7.61367 7.91172C7.19343 7.91172 6.81306 8.08033 6.53199 8.35109L4.99005 7.58019C4.99779 7.51738 5.00918 7.45566 5.00918 7.39082C5.00918 6.52917 4.30814 5.82812 3.44648 5.82812C2.58483 5.82812 1.88379 6.52917 1.88379 7.39082C1.88379 8.25247 2.58483 8.95352 3.44648 8.95352Z" fill="white"/>
    <path d="M18.0667 17.3573H17.5111V6.34902C17.5111 6.06117 17.278 5.82812 16.9902 5.82812H14.9066C14.6188 5.82812 14.3857 6.06117 14.3857 6.34902V17.3573H13.3439V9.47441C13.3439 9.18656 13.1109 8.95352 12.823 8.95352H10.7394C10.4516 8.95352 10.2185 9.18656 10.2185 9.47441V17.3573H9.17672V13.6416C9.17672 13.3538 8.94367 13.1207 8.65582 13.1207H6.57223C6.28438 13.1207 6.05133 13.3538 6.05133 13.6416V17.3573H5.00953V11.558C5.00953 11.2702 4.77648 11.0371 4.48863 11.0371H2.40504C2.11719 11.0371 1.88414 11.2702 1.88414 11.558V17.3573H1.32852C1.04067 17.3573 0.807617 17.5904 0.807617 17.8782C0.807617 18.1661 1.04067 18.3991 1.32852 18.3991H18.0667C18.3546 18.3991 18.5876 18.1661 18.5876 17.8782C18.5876 17.5904 18.3546 17.3573 18.0667 17.3573Z" fill="white"/>
  </g>
  <defs>
    <clipPath id="clip0_409_17374">
      <rect width="17.78" height="17.78" fill="white" transform="translate(0.807617 0.619141)"/>
    </clipPath>
  </defs>
</svg>