<svg xmlns="http://www.w3.org/2000/svg" width="19" height="19" viewBox="0 0 19 19" fill="none">
  <path d="M8.00769 10.3908H5.17341C4.7837 10.3908 4.46484 10.0719 4.46484 9.6822C4.46484 9.29249 4.7837 8.97363 5.17341 8.97363H8.00769C8.3974 8.97363 8.71625 9.29249 8.71625 9.6822C8.71625 10.0719 8.3974 10.3908 8.00769 10.3908Z" fill="white"/>
  <path d="M6.59138 11.8081C6.20167 11.8081 5.88281 11.4892 5.88281 11.0995V8.26521C5.88281 7.8755 6.20167 7.55664 6.59138 7.55664C6.98109 7.55664 7.29995 7.8755 7.29995 8.26521V11.0995C7.29995 11.4892 6.98109 11.8081 6.59138 11.8081Z" fill="white"/>
  <path d="M11.5582 11.0988C11.1685 11.0988 10.8496 10.7799 10.8496 10.3902C10.8496 10.0005 11.1614 9.68164 11.5511 9.68164H11.5582C11.9479 9.68164 12.2667 10.0005 12.2667 10.3902C12.2667 10.7799 11.9479 11.0988 11.5582 11.0988Z" fill="white"/>
  <path d="M13.6842 9.68179C13.2944 9.68179 12.9756 9.36293 12.9756 8.97322C12.9756 8.5835 13.2874 8.26465 13.6771 8.26465H13.6842C14.0739 8.26465 14.3927 8.5835 14.3927 8.97322C14.3927 9.36293 14.0739 9.68179 13.6842 9.68179Z" fill="white"/>
  <path d="M2.13394 7.90315C2.22606 7.03161 2.62994 6.22384 3.28182 5.63573C3.93371 5.04762 4.7769 4.72168 5.65553 4.72168H13.1947C14.0733 4.72168 14.9165 5.04762 15.5684 5.63573C16.2203 6.22384 16.6313 7.03161 16.7163 7.90315L16.7234 7.99527C16.8438 8.95183 17.2194 12.1546 17.2194 13.2245C17.2194 13.9827 16.9218 14.6912 16.3903 15.2297C15.8518 15.7612 15.1433 16.0588 14.3851 16.0588C13.386 16.0588 12.8546 15.5273 12.4649 15.1447L11.4658 14.1456C11.3312 14.0039 11.154 13.9331 10.9627 13.9331H7.88752C7.70329 13.9331 7.51906 14.011 7.38444 14.1386L6.38535 15.1376C5.99564 15.5273 5.46421 16.0588 4.46513 16.0588C3.72114 16.0588 2.99131 15.7541 2.45988 15.2297C1.92846 14.6912 1.63086 13.9827 1.63086 13.2245C1.63086 12.1616 2.0064 8.95183 2.11977 7.99527L2.13394 7.90315ZM7.88752 12.5159H10.9627C11.5296 12.5159 12.061 12.7356 12.4649 13.1395L13.464 14.1386C13.8182 14.4858 13.9883 14.6416 14.3851 14.6416C14.7606 14.6416 15.122 14.4928 15.3913 14.2236C15.6534 13.9614 15.8022 13.6 15.8022 13.2245C15.8022 12.438 15.5542 10.0926 15.3204 8.16532C15.3204 8.15824 15.3133 8.08738 15.3133 8.08738C15.2566 7.52052 15.0086 7.0387 14.6189 6.68441C14.2292 6.33013 13.719 6.13882 13.1947 6.13882H5.65553C5.13119 6.13882 4.62102 6.33013 4.23131 6.68441C3.84159 7.0387 3.59359 7.52053 3.54399 8.04487L3.52982 8.17241C3.296 10.0997 3.048 12.4451 3.048 13.2245C3.048 13.6 3.1968 13.9614 3.46605 14.2236C3.73531 14.4858 4.08959 14.6416 4.46513 14.6416C4.86193 14.6416 5.03199 14.4858 5.37919 14.1386L6.37827 13.1395C6.78215 12.7356 7.32066 12.5159 7.88752 12.5159Z" fill="white"/>
</svg>