<svg xmlns="http://www.w3.org/2000/svg" width="22" height="23" viewBox="0 0 22 23" fill="none">
  <path fill-rule="evenodd" clip-rule="evenodd" d="M5.50951 5.01908C5.2157 3.49131 6.39091 2.08105 7.91869 2.08105C9.27018 2.08105 10.3866 3.1975 10.3866 4.549V7.60454C10.7392 7.60454 11.0918 7.54578 11.4443 7.54578C11.7969 7.54578 12.0907 7.54578 12.4432 7.60454V4.549C12.4432 3.1975 13.5597 2.08105 14.9112 2.08105C16.439 2.08105 17.6142 3.49131 17.3791 5.01908L16.7328 8.60347C19.0244 9.6024 20.7872 11.3652 20.7872 13.5394V14.8908C20.7872 16.7124 19.612 18.2402 17.908 19.2391C16.2039 20.2968 13.971 20.8844 11.4443 20.8844C8.91761 20.8844 6.68472 20.2968 4.98066 19.2391C3.33537 18.2402 2.16016 16.7124 2.16016 14.8908V13.5394C2.16016 11.3652 3.86421 9.6024 6.15587 8.60347L5.50951 5.01908ZM15.8514 9.07355L16.6152 4.8428C16.7915 3.78511 16.0276 2.78618 14.9112 2.78618C13.971 2.78618 13.2071 3.55007 13.2071 4.49024V8.36843C12.9721 8.30967 12.6783 8.30967 12.4432 8.30967C12.0907 8.30967 11.7969 8.25091 11.4443 8.25091C11.0918 8.25091 10.7392 8.25091 10.3866 8.30967C10.1516 8.30967 9.85778 8.36843 9.62274 8.36843V4.549C9.62274 3.60883 8.85885 2.84494 7.91869 2.84494C6.861 2.84494 6.03835 3.84387 6.27339 4.90156L7.03728 9.13232C4.56934 10.0725 2.92404 11.7178 2.92404 13.5981V14.9496C2.92404 17.8289 6.74348 20.1793 11.4443 20.1793C16.1452 20.1793 19.9646 17.8289 19.9646 14.9496V13.5981C20.0233 11.659 18.3781 10.0137 15.8514 9.07355Z" fill="#696969"/>
  <path d="M20.023 14.891C20.023 17.7703 16.2035 20.1207 11.5027 20.1207C6.80185 20.1207 2.98242 17.7703 2.98242 14.891V13.5396H20.0817V14.891H20.023Z" fill="white"/>
  <path fill-rule="evenodd" clip-rule="evenodd" d="M6.27301 4.90134C6.03797 3.84366 6.86061 2.84473 7.9183 2.84473C8.85847 2.84473 9.62236 3.60861 9.62236 4.54878V8.42697C10.21 8.36821 10.7976 8.30945 11.4439 8.30945C12.0315 8.30945 12.6191 8.36821 13.2067 8.42697V4.54878C13.2067 3.60861 13.9706 2.84473 14.9108 2.84473C15.9685 2.84473 16.7911 3.84366 16.6149 4.90134L15.851 9.1321C18.3189 10.0723 20.023 11.7176 20.023 13.5979C20.023 16.4772 16.2035 18.8276 11.5027 18.8276C6.80185 18.8276 2.98242 16.4772 2.98242 13.5979C2.98242 11.7176 4.62772 10.0723 7.09566 9.1321L6.27301 4.90134Z" fill="#CFCFCF"/>
  <path d="M9.09323 13.1871C9.09323 13.951 8.6819 14.5974 8.15306 14.5974C7.62421 14.5974 7.21289 13.951 7.21289 13.1871C7.21289 12.4232 7.62421 11.7769 8.15306 11.7769C8.6819 11.7769 9.09323 12.4232 9.09323 13.1871Z" fill="#696969"/>
  <path d="M15.6157 13.1866C15.6157 13.9505 15.2044 14.5969 14.6755 14.5969C14.1467 14.5969 13.7354 13.9505 13.7354 13.1866C13.7354 12.4227 14.1467 11.7764 14.6755 11.7764C15.2044 11.7764 15.6157 12.4227 15.6157 13.1866Z" fill="#696969"/>
</svg>