<svg xmlns="http://www.w3.org/2000/svg" width="18" height="19" viewBox="0 0 18 19" fill="none">
  <g clip-path="url(#clip0_409_22343)">
    <path d="M16.0702 16.258H15.1611V3.83389C15.1611 3.33389 14.752 2.9248 14.2521 2.9248H11.8278C11.3278 2.9248 10.9188 3.33389 10.9188 3.83389V16.258H10.3127V8.07627C10.3127 7.57627 9.90361 7.16719 9.40361 7.16719H6.97939C6.4794 7.16719 6.07031 7.57627 6.07031 8.07627V16.258H5.46426V12.3187C5.46426 11.8187 5.05517 11.4096 4.55518 11.4096H2.13096C1.63096 11.4096 1.22188 11.8187 1.22188 12.3187V16.258H0.312793C0.146128 16.258 0.00976562 16.3944 0.00976562 16.561C0.00976562 16.7277 0.146128 16.8641 0.312793 16.8641H16.0702C16.2369 16.8641 16.3732 16.7277 16.3732 16.561C16.3732 16.3944 16.2369 16.258 16.0702 16.258ZM4.8582 16.258H1.82793V12.3187C1.82793 12.152 1.96429 12.0156 2.13096 12.0156H4.55518C4.72184 12.0156 4.8582 12.152 4.8582 12.3187V16.258ZM9.70664 16.258H6.67637V8.07627C6.67637 7.9096 6.81273 7.77324 6.97939 7.77324H9.40361C9.57028 7.77324 9.70664 7.9096 9.70664 8.07627V16.258ZM14.5551 16.258H11.5248V3.83389C11.5248 3.66722 11.6612 3.53086 11.8278 3.53086H14.2521C14.4187 3.53086 14.5551 3.66722 14.5551 3.83389V16.258Z" fill="white" stroke="white" stroke-width="0.381"/>
  </g>
  <defs>
    <clipPath id="clip0_409_22343">
      <rect width="18.1012" height="18.1012" fill="white" transform="translate(0.00878906 0.844238)"/>
    </clipPath>
  </defs>
</svg>