<svg xmlns="http://www.w3.org/2000/svg" width="21" height="20" viewBox="0 0 21 20" fill="none">
  <path d="M6.11559 12.802H19.1093V15.1645H6.11559V12.802ZM4.93437 12.802V15.1645H1.39062V12.802H4.93437ZM6.11559 18.7082V16.3457H19.1093V17.8223C19.1093 18.3116 18.7127 18.7082 18.2234 18.7082H6.11559ZM4.93437 18.7082H2.27655C1.78727 18.7082 1.39062 18.3116 1.39062 17.8223V16.3457H4.93437V18.7082ZM6.11559 9.25824H18.2234C18.7127 9.25824 19.1093 9.65488 19.1093 10.1442V11.6207H6.11559V9.25824ZM4.93437 9.25824V11.6207H1.39062V10.1442C1.39062 9.65488 1.78727 9.25824 2.27655 9.25824H4.93437Z" fill="white"/>
  <path d="M19.1093 8.99198H6.11559V11.3545H19.1093V8.99198Z" fill="white"/>
  <path d="M4.93437 11.3545V8.99198H1.39062V11.3545H4.93437Z" fill="white"/>
  <path d="M18.2234 5.44824H6.11559V7.81072H19.1093V6.33417C19.1093 5.84488 18.7127 5.44824 18.2234 5.44824Z" fill="white"/>
  <path d="M4.93437 7.81072V5.44824H2.27655C1.78727 5.44824 1.39062 5.84488 1.39062 6.33417V7.81072H4.93437Z" fill="white"/>
</svg>