<svg xmlns="http://www.w3.org/2000/svg" width="22" height="21" viewBox="0 0 22 21" fill="none">
  <path d="M15.7355 19.4395C15.7337 19.5721 15.6803 19.6988 15.5865 19.7927C15.4926 19.8865 15.3659 19.9399 15.2333 19.9417H7.19814C7.06495 19.9417 6.93722 19.8888 6.84304 19.7946C6.74886 19.7004 6.69595 19.5727 6.69595 19.4395C6.69595 19.3063 6.74886 19.1785 6.84304 19.0844C6.93722 18.9902 7.06495 18.9373 7.19814 18.9373H8.12888L8.39671 17.5981H14.0347L14.3025 18.9373H15.2333C15.3659 18.939 15.4926 18.9925 15.5865 19.0863C15.6803 19.1801 15.7337 19.3068 15.7355 19.4395ZM20.4226 4.7084V14.7523C20.4226 15.2407 20.2286 15.709 19.8833 16.0544C19.538 16.3997 19.0696 16.5937 18.5812 16.5937H3.85017C3.36181 16.5937 2.89344 16.3997 2.54812 16.0544C2.20279 15.709 2.00879 15.2407 2.00879 14.7523V4.7084C2.00879 4.57521 2.0617 4.44748 2.15588 4.3533C2.25006 4.25912 2.37779 4.20621 2.51098 4.20621C2.64417 4.20621 2.77191 4.25912 2.86609 4.3533C2.96027 4.44748 3.01318 4.57521 3.01318 4.7084V12.9109H19.4182V4.7084C19.4182 4.57521 19.4711 4.44748 19.5653 4.3533C19.6595 4.25912 19.7872 4.20621 19.9204 4.20621C20.0536 4.20621 20.1813 4.25912 20.2755 4.3533C20.3697 4.44748 20.4226 4.57521 20.4226 4.7084ZM16.5725 1.52783H5.85895C5.37059 1.52783 4.90223 1.72183 4.5569 2.06716C4.21157 2.41249 4.01757 2.88085 4.01757 3.36922V11.9065H18.4138V3.36922C18.4138 2.88085 18.2198 2.41249 17.8745 2.06716C17.5292 1.72183 17.0608 1.52783 16.5725 1.52783ZM10.7135 10.5941L7.94809 9.0005C7.87321 8.95498 7.81117 8.89114 7.76782 8.81498C7.72447 8.73883 7.70124 8.65288 7.70034 8.56526V5.378L10.7135 7.11894V10.5941ZM8.20253 4.50083L10.9613 2.9072C11.0392 2.86441 11.1268 2.84198 11.2157 2.84198C11.3047 2.84198 11.3922 2.86441 11.4701 2.9072L14.2289 4.50083L11.2157 6.24177L8.20253 4.50083ZM14.7311 8.56526C14.7302 8.65288 14.7069 8.73883 14.6636 8.81498C14.6202 8.89114 14.5582 8.95498 14.4833 9.0005L11.7179 10.5941V7.11224L14.7311 5.378V8.56526Z" fill="white"/>
</svg>