<svg xmlns="http://www.w3.org/2000/svg" width="25" height="24" viewBox="0 0 25 24" fill="none">
  <path d="M15.5126 7.01855H5.53082C5.08999 7.01984 4.66759 7.19553 4.35588 7.50724C4.04416 7.81896 3.86847 8.24136 3.86719 8.68219V17.0004C3.8681 17.3443 3.9751 17.6795 4.17359 17.9604C4.37207 18.2413 4.65239 18.454 4.97628 18.5697V20.3276C4.97681 20.4321 5.00673 20.5343 5.06263 20.6226C5.11853 20.7108 5.19815 20.7816 5.29237 20.8267C5.36607 20.8646 5.44798 20.8836 5.53082 20.8822C5.65621 20.8832 5.77795 20.84 5.87464 20.7602L8.49763 18.664H15.5126C15.9534 18.6627 16.3759 18.487 16.6876 18.1753C16.9993 17.8636 17.175 17.4412 17.1763 17.0004V8.68219C17.175 8.24136 16.9993 7.81896 16.6876 7.50724C16.3759 7.19553 15.9534 7.01984 15.5126 7.01855ZM10.5217 16.4458C10.412 16.4458 10.3048 16.4133 10.2136 16.3524C10.1224 16.2914 10.0514 16.2048 10.0094 16.1035C9.96742 16.0022 9.95643 15.8906 9.97783 15.7831C9.99923 15.6755 10.052 15.5767 10.1296 15.4991C10.2072 15.4216 10.306 15.3688 10.4135 15.3474C10.5211 15.326 10.6326 15.337 10.7339 15.3789C10.8353 15.4209 10.9219 15.492 10.9828 15.5832C11.0437 15.6744 11.0763 15.7816 11.0763 15.8913C11.0758 16.0382 11.0173 16.179 10.9134 16.2829C10.8095 16.3868 10.6687 16.4454 10.5217 16.4458ZM11.5532 13.2295C11.3994 13.3163 11.2709 13.4418 11.1804 13.5935C11.09 13.7452 11.0407 13.9179 11.0374 14.0945V14.15C11.0374 14.2971 10.979 14.4381 10.875 14.5421C10.771 14.6461 10.63 14.7045 10.4829 14.7045C10.3358 14.7045 10.1948 14.6461 10.0908 14.5421C9.98678 14.4381 9.92836 14.2971 9.92836 14.15V14.0945C9.93056 13.7232 10.0307 13.359 10.2186 13.0386C10.4065 12.7183 10.6755 12.4532 10.9986 12.2701C11.1361 12.1916 11.2537 12.0826 11.3423 11.9514C11.4309 11.8202 11.4881 11.6703 11.5095 11.5135C11.5308 11.3566 11.5158 11.1969 11.4656 11.0468C11.4153 10.8967 11.3312 10.7601 11.2197 10.6477C11.1082 10.5354 10.9723 10.4501 10.8226 10.3987C10.6728 10.3473 10.5133 10.331 10.3563 10.3511C10.1992 10.3713 10.049 10.4273 9.91705 10.5148C9.78515 10.6024 9.67517 10.7191 9.59563 10.856C9.55634 10.9225 9.52472 10.9931 9.50136 11.0667C9.45724 11.2072 9.35913 11.3244 9.22861 11.3925C9.09809 11.4606 8.94586 11.4741 8.80541 11.43C8.66495 11.3858 8.54777 11.2877 8.47966 11.1572C8.41154 11.0267 8.39806 10.8745 8.44218 10.734C8.49206 10.5836 8.55709 10.4387 8.63627 10.3015C8.86816 9.90472 9.22102 9.59267 9.64315 9.41105C10.0653 9.22942 10.5345 9.18777 10.982 9.29219C11.3681 9.38201 11.7213 9.5782 12.0017 9.85852C12.282 10.1388 12.4782 10.4921 12.568 10.8782C12.6738 11.3271 12.6322 11.7982 12.4494 12.2217C12.2667 12.6451 11.9524 12.9985 11.5532 13.2295Z" fill="white"/>
  <path d="M21.647 4.62262V12.9408C21.646 13.2847 21.539 13.62 21.3406 13.9008C21.1421 14.1817 20.8618 14.3945 20.5379 14.5101V16.2681C20.5373 16.3725 20.5074 16.4747 20.4515 16.563C20.3956 16.6513 20.316 16.722 20.2218 16.7671C20.1481 16.805 20.0662 16.824 19.9833 16.8226C19.8579 16.8236 19.7362 16.7804 19.6395 16.7006L18.3197 15.647V8.50443C18.3194 7.76914 18.0272 7.06404 17.5073 6.54411C16.9874 6.02418 16.2823 5.73197 15.547 5.73171H8.33789V4.62262C8.33918 4.18179 8.51487 3.75939 8.82658 3.44767C9.13829 3.13596 9.5607 2.96027 10.0015 2.95898H19.9833C20.4241 2.96027 20.8466 3.13596 21.1583 3.44767C21.47 3.75939 21.6457 4.18179 21.647 4.62262Z" fill="white"/>
</svg>