<svg xmlns="http://www.w3.org/2000/svg" width="22" height="23" viewBox="0 0 22 23" fill="none">
  <g clip-path="url(#clip0_409_17324)">
    <path d="M20.4208 6.10091L11.4231 0.97433C11.2947 0.901135 11.1372 0.901135 11.0088 0.97433L2.01115 6.10091C1.88049 6.17532 1.7998 6.31413 1.7998 6.4645V16.7177C1.7998 16.868 1.88049 17.0068 2.01115 17.0812L11.0088 22.2078C11.1378 22.2813 11.2951 22.2807 11.4231 22.2078L20.4208 17.0812C20.5514 17.0068 20.6321 16.868 20.6321 16.7177V6.4645C20.6321 6.31413 20.5514 6.17532 20.4208 6.10091ZM19.7951 16.4745L11.216 21.3625L2.6368 16.4745V6.70773L11.216 1.81957L19.7951 6.70769V16.4745Z" fill="white"/>
    <path d="M11.0096 3.86446L4.52286 7.56037C4.39221 7.63482 4.31152 7.77359 4.31152 7.92396V15.2585C4.31152 15.4089 4.39221 15.5477 4.52286 15.6221L11.0096 19.318C11.1385 19.3915 11.2959 19.3909 11.4239 19.318L17.9106 15.6221C18.0412 15.5477 18.1219 15.4088 18.1219 15.2585V7.924C18.1219 7.77363 18.0412 7.63482 17.9106 7.56041L11.4239 3.8645C11.2955 3.79127 11.1379 3.79127 11.0096 3.86446ZM9.54273 13.056C9.54273 13.4465 9.05275 13.6238 8.8027 13.3239L7.45024 11.7009V13.056C7.45024 13.2871 7.26284 13.4745 7.03175 13.4745C6.80065 13.4745 6.61325 13.2871 6.61325 13.056V10.545C6.61325 10.1547 7.10314 9.9771 7.35328 10.2771L8.70573 11.9001V10.545C8.70573 10.3139 8.89314 10.1265 9.12423 10.1265C9.35532 10.1265 9.54273 10.3139 9.54273 10.545V13.056ZM13.7277 10.1265H15.4017C15.6328 10.1265 15.8202 10.3139 15.8202 10.545C15.8202 10.7762 15.6328 10.9635 15.4017 10.9635H14.9832V13.056C14.9832 13.2871 14.7958 13.4745 14.5647 13.4745C14.3336 13.4745 14.1462 13.2871 14.1462 13.056V10.9635H13.7277C13.4966 10.9635 13.3092 10.7762 13.3092 10.545C13.3092 10.3139 13.4966 10.1265 13.7277 10.1265ZM12.0537 10.1265C12.2848 10.1265 12.4722 10.3139 12.4722 10.545C12.4722 10.7762 12.2848 10.9635 12.0537 10.9635H11.2167V11.8005H12.0537C12.2848 11.8005 12.4722 11.9879 12.4722 12.219C12.4722 12.4501 12.2848 12.6375 12.0537 12.6375H11.2167V13.056C11.2167 13.2871 11.0293 13.4745 10.7982 13.4745C10.5671 13.4745 10.3797 13.2871 10.3797 13.056V10.545C10.3797 10.3139 10.5671 10.1265 10.7982 10.1265H12.0537Z" fill="white"/>
  </g>
  <defs>
    <clipPath id="clip0_409_17324">
      <rect width="21.427" height="21.427" fill="white" transform="translate(0.50293 0.878418)"/>
    </clipPath>
  </defs>
</svg>