<svg xmlns="http://www.w3.org/2000/svg" width="22" height="9" viewBox="0 0 22 9" fill="none">
  <g clip-path="url(#clip0_409_17388)">
    <path d="M15.0488 6.92834V1.55273H16.1293V6.92834H15.0488Z" fill="#B5B5B5"/>
    <path d="M2.4551 8.52501H0.138672V3.14941H2.36195C3.44249 3.14941 4.07208 3.7383 4.07208 4.65946C4.07208 5.25573 3.66773 5.64106 3.38786 5.76936C3.72193 5.92029 4.14955 6.25996 4.14955 6.97756C4.14955 7.98138 3.44249 8.52501 2.4551 8.52501ZM2.27643 4.08579H1.21919V5.32399H2.27643C2.73499 5.32399 2.99156 5.0748 2.99156 4.70468C2.99156 4.33498 2.73499 4.08579 2.27643 4.08579ZM2.34629 6.26777H1.21919V7.58905H2.34629C2.83616 7.58905 3.06903 7.28722 3.06903 6.92451C3.06903 6.56222 2.83573 6.26777 2.34629 6.26777Z" fill="white"/>
    <path d="M7.44543 6.3204V8.52501H6.37253V6.3204L4.70898 3.14941H5.88265L6.9166 5.31618L7.93489 3.14941H9.10856L7.44543 6.3204Z" fill="white"/>
    <path d="M12.1719 8.52501H9.85547V3.14941H12.0788C13.1593 3.14941 13.7889 3.7383 13.7889 4.65946C13.7889 5.25573 13.3845 5.64106 13.1047 5.76936C13.4387 5.92029 13.8664 6.25996 13.8664 6.97756C13.8664 7.98138 13.1593 8.52501 12.1719 8.52501ZM11.9932 4.08579H10.936V5.32399H11.9932C12.4518 5.32399 12.7084 5.0748 12.7084 4.70468C12.7084 4.33498 12.4518 4.08579 11.9932 4.08579ZM12.0631 6.26777H10.936V7.58905H12.0631C12.553 7.58905 12.7858 7.28722 12.7858 6.92451C12.7858 6.56222 12.553 6.26777 12.0631 6.26777Z" fill="white"/>
    <path d="M19.6124 4.08579V8.52542H18.5319V4.08579H17.0859V3.14941H21.0583V4.08579H19.6124Z" fill="white"/>
  </g>
  <defs>
    <clipPath id="clip0_409_17388">
      <rect width="20.9184" height="8.17502" fill="white" transform="translate(0.138672 0.831543)"/>
    </clipPath>
  </defs>
</svg>