<svg xmlns="http://www.w3.org/2000/svg" width="22" height="22" viewBox="0 0 22 22" fill="none">
  <g clip-path="url(#clip0_408_14860)">
    <path d="M10.8773 1.92154C10.8773 1.57224 11.0054 1.23724 11.2334 0.990247C11.4614 0.743253 11.7706 0.604492 12.093 0.604492L19.3875 0.604492C19.7099 0.604492 20.0191 0.743253 20.2471 0.990247C20.4751 1.23724 20.6032 1.57224 20.6032 1.92154V20.3603C20.6032 20.7096 20.4751 21.0446 20.2471 21.2915C20.0191 21.5385 19.7099 21.6773 19.3875 21.6773H12.093C11.7706 21.6773 11.4614 21.5385 11.2334 21.2915C11.0054 21.0446 10.8773 20.7096 10.8773 20.3603V1.92154ZM12.093 19.7017C12.093 19.8764 12.1571 20.0439 12.2711 20.1674C12.3851 20.2909 12.5397 20.3603 12.7009 20.3603C12.8621 20.3603 13.0167 20.2909 13.1307 20.1674C13.2447 20.0439 13.3088 19.8764 13.3088 19.7017C13.3088 19.5271 13.2447 19.3596 13.1307 19.2361C13.0167 19.1126 12.8621 19.0432 12.7009 19.0432C12.5397 19.0432 12.3851 19.1126 12.2711 19.2361C12.1571 19.3596 12.093 19.5271 12.093 19.7017ZM14.5245 19.7017C14.5245 19.8764 14.5885 20.0439 14.7025 20.1674C14.8165 20.2909 14.9712 20.3603 15.1324 20.3603C15.2936 20.3603 15.4482 20.2909 15.5622 20.1674C15.6762 20.0439 15.7402 19.8764 15.7402 19.7017C15.7402 19.5271 15.6762 19.3596 15.5622 19.2361C15.4482 19.1126 15.2936 19.0432 15.1324 19.0432C14.9712 19.0432 14.8165 19.1126 14.7025 19.2361C14.5885 19.3596 14.5245 19.5271 14.5245 19.7017ZM12.7009 1.92154C12.5397 1.92154 12.3851 1.99092 12.2711 2.11442C12.1571 2.23792 12.093 2.40542 12.093 2.58007C12.093 2.75472 12.1571 2.92222 12.2711 3.04572C12.3851 3.16921 12.5397 3.23859 12.7009 3.23859H18.7796C18.9408 3.23859 19.0954 3.16921 19.2094 3.04572C19.3234 2.92222 19.3875 2.75472 19.3875 2.58007C19.3875 2.40542 19.3234 2.23792 19.2094 2.11442C19.0954 1.99092 18.9408 1.92154 18.7796 1.92154H12.7009ZM12.093 5.21417C12.093 5.38882 12.1571 5.55632 12.2711 5.67982C12.3851 5.80332 12.5397 5.8727 12.7009 5.8727H18.7796C18.9408 5.8727 19.0954 5.80332 19.2094 5.67982C19.3234 5.55632 19.3875 5.38882 19.3875 5.21417C19.3875 5.03952 19.3234 4.87202 19.2094 4.74852C19.0954 4.62502 18.9408 4.55564 18.7796 4.55564H12.7009C12.5397 4.55564 12.3851 4.62502 12.2711 4.74852C12.1571 4.87202 12.093 5.03952 12.093 5.21417ZM2.97498 3.23859C2.49132 3.23859 2.02748 3.44673 1.68549 3.81723C1.3435 4.18772 1.15137 4.69021 1.15137 5.21417L1.15137 14.4335C1.15137 14.9575 1.3435 15.46 1.68549 15.8305C2.02748 16.201 2.49132 16.4091 2.97498 16.4091H8.4458V19.0432H7.83793C7.67672 19.0432 7.5221 19.1126 7.4081 19.2361C7.29411 19.3596 7.23006 19.5271 7.23006 19.7017C7.23006 19.8764 7.29411 20.0439 7.4081 20.1674C7.5221 20.2909 7.67672 20.3603 7.83793 20.3603H9.66154V15.0921H2.97498C2.81376 15.0921 2.65914 15.0227 2.54515 14.8992C2.43115 14.7757 2.36711 14.6082 2.36711 14.4335V5.21417C2.36711 5.03952 2.43115 4.87202 2.54515 4.74852C2.65914 4.62502 2.81376 4.55564 2.97498 4.55564H9.66154V3.23859H2.97498Z" fill="white"/>
  </g>
  <defs>
    <clipPath id="clip0_408_14860">
      <rect width="21.0728" height="21.0728" fill="white" transform="translate(0.339844 0.604492)"/>
    </clipPath>
  </defs>
</svg>