<svg xmlns="http://www.w3.org/2000/svg" width="22" height="22" viewBox="0 0 22 22" fill="none">
  <path d="M16.8194 20.7625C15.6673 21.8745 14.4094 21.699 13.1985 21.1722C11.917 20.6337 10.7414 20.6103 9.38942 21.1722C7.69652 21.8979 6.80304 21.6873 5.792 20.7625C0.0549382 14.8746 0.901391 5.90805 7.41437 5.58029C9.00147 5.66223 10.1066 6.4465 11.0353 6.51674C12.4225 6.2358 13.751 5.42811 15.2323 5.53346C17.0075 5.67393 18.3477 6.37627 19.2294 7.64048C15.5615 9.82943 16.4314 14.6405 19.7937 15.9866C19.1236 17.7424 18.2537 19.4866 16.8076 20.7742L16.8194 20.7625ZM10.9177 5.51005C10.7414 2.8997 12.8693 0.745858 15.3146 0.535156C15.6555 3.55521 12.5636 5.80269 10.9177 5.51005Z" fill="white"/>
</svg>